<svg width="33" height="33" viewBox="0 0 33 33" fill="none" xmlns="http://www.w3.org/2000/svg">
<path d="M15.7055 0.608577C15.7766 0.457816 15.8865 0.330913 16.0228 0.242187C16.1591 0.153461 16.3163 0.106445 16.4767 0.106445C16.6371 0.106445 16.7943 0.153461 16.9305 0.242187C17.0668 0.330913 17.1767 0.457816 17.2479 0.608577L20.9984 8.57576C21.2455 9.10015 21.6102 9.55384 22.0613 9.89787C22.5123 10.2419 23.0362 10.466 23.588 10.551L31.9756 11.8382C32.1345 11.8624 32.2838 11.9327 32.4066 12.0412C32.5294 12.1497 32.6209 12.2921 32.6705 12.4523C32.7202 12.6124 32.7261 12.784 32.6877 12.9475C32.6492 13.111 32.5679 13.26 32.4529 13.3775L26.3871 19.5721C25.9871 19.981 25.6878 20.4856 25.515 21.0427C25.3422 21.5997 25.3011 22.1925 25.3951 22.7699L26.8271 31.5221C26.8552 31.6887 26.838 31.8602 26.7776 32.017C26.7172 32.1739 26.616 32.3098 26.4854 32.4092C26.3549 32.5086 26.2004 32.5676 26.0395 32.5793C25.8786 32.591 25.7177 32.5551 25.5753 32.4756L18.0775 28.3413C17.5835 28.0693 17.0339 27.9271 16.4759 27.9271C15.9179 27.9271 15.3682 28.0693 14.8742 28.3413L7.37799 32.4756C7.23565 32.5546 7.07502 32.5902 6.91437 32.5782C6.75372 32.5662 6.5995 32.5072 6.46925 32.4079C6.339 32.3085 6.23795 32.1728 6.17759 32.0162C6.11723 31.8597 6.09998 31.6884 6.12781 31.5221L7.55821 22.7716C7.65269 22.1939 7.61176 21.6008 7.43893 21.0434C7.26611 20.486 6.96658 19.9811 6.56618 19.5721L0.5004 13.3792C0.384465 13.2618 0.302309 13.1126 0.263293 12.9486C0.224276 12.7845 0.229968 12.6123 0.279718 12.4516C0.329468 12.2908 0.421277 12.1479 0.544687 12.0391C0.668096 11.9304 0.818145 11.8602 0.97774 11.8365L9.36365 10.551C9.9161 10.4667 10.4407 10.2429 10.8924 9.89878C11.3441 9.5547 11.7093 9.10067 11.9565 8.57576L15.7055 0.608577Z" fill="#cccccc"/>
</svg>
