<svg width="221" height="201" viewBox="0 0 221 201" fill="none" xmlns="http://www.w3.org/2000/svg">
<path fill-rule="evenodd" clip-rule="evenodd" d="M197.811 104.973C197.8 105.068 197.778 105.161 197.734 105.393C197.701 105.54 197.712 105.498 197.734 105.393C193.977 124.056 170.132 132.899 154.198 121.56C159.182 112.012 160.795 101.126 158.475 90.6611C166.287 87.1624 172.983 81.8509 177.944 75.2117C191.579 78.8158 200.353 92.1672 197.734 105.393C197.756 105.277 197.789 105.11 197.811 104.973ZM137.48 179.539C120.32 179.539 106.995 163.829 110.42 147.874C121.016 147.758 131.9 143.982 140.243 137.786C147.116 142.886 155.712 146.315 164.364 147.4C168.22 163.587 154.906 179.539 137.48 179.539ZM104.321 126.238C69.7684 119.219 80.7187 67.5382 115.37 74.7673C149.922 81.965 138.983 133.33 104.321 126.238ZM70.2768 129.358C74.995 135.175 81.8346 140.222 88.84 143.352C86.3096 154.754 88.4313 166.578 94.5085 176.663C61.0835 192.66 37.4706 143.922 70.2768 129.358ZM41.7688 125.793C25.8574 121.589 17.2277 104.453 23.8243 90.0898C30.8408 74.8198 51.4814 69.4548 65.5143 79.4451C60.5199 88.9823 58.9177 99.8794 61.2381 110.344C53.426 113.832 46.719 119.144 41.7688 125.793ZM54.3764 53.5855C54.3764 53.5855 54.3433 53.5847 54.3433 53.5952C54.3101 53.5847 54.3211 53.5863 54.2879 53.5757C54.3211 53.5863 54.3543 53.5855 54.3764 53.5855ZM80.7296 21.5392C98.409 20.6751 112.851 36.5449 109.282 53.1216C98.6962 53.2481 87.8124 57.0236 79.47 63.2096C74.7628 59.7215 69.1607 56.929 63.426 55.3482C62.1995 55.011 56.4758 53.6924 54.7852 53.5659C51.0947 37.9166 64.31 22.3401 80.7296 21.5392ZM149.436 71.6472C144.718 65.8301 137.878 60.7722 130.873 57.6529C133.403 46.2505 131.271 34.4278 125.193 24.3322C158.629 8.34559 182.231 57.0728 149.436 71.6472ZM186.364 55.7388C193.469 15.6933 145.646 -14.4686 109.856 8.39938C74.0558 -14.4686 26.2442 15.6828 33.349 55.7388C-10.783 69.8601 -10.783 131.15 33.349 145.271C26.2442 185.316 74.0558 215.463 109.856 192.606C145.646 215.463 193.469 185.316 186.364 145.271C231.634 130.781 231.457 70.1657 186.364 55.7388Z" fill="#D25151"/>
</svg>
