<svg width="236" height="235" viewBox="0 0 236 235" fill="none" xmlns="http://www.w3.org/2000/svg">
<path d="M118.25 19.7222V7.5M191.583 44.1667L203.806 31.9444M216.028 117.5H228.25M20.4722 117.5H8.25M32.6944 31.9444L44.9167 44.1667M93.8056 178.611H142.694M118.25 56.3889C84.4993 56.3889 57.1389 83.7493 57.1389 117.5C57.1389 134.138 63.788 149.223 74.574 160.244C78.7753 164.536 82.2288 169.644 83.4073 175.534L89.874 207.852C92.1601 219.277 102.192 227.5 113.844 227.5H122.656C134.308 227.5 144.34 219.277 146.626 207.852L153.093 175.534C154.271 169.644 157.724 164.536 161.926 160.244C172.712 149.223 179.361 134.138 179.361 117.5C179.361 83.7493 152 56.3889 118.25 56.3889Z" stroke="#D25151" stroke-width="15" stroke-linecap="round"/>
</svg>
