<svg width="231" height="247" viewBox="0 0 231 247" fill="none" xmlns="http://www.w3.org/2000/svg">
<path d="M103.879 8.07099L106.304 12.4435L106.304 12.4434L103.879 8.07099ZM127.621 8.07086L130.046 3.69832L130.046 3.69822L127.621 8.07086ZM219.463 59.007L217.038 63.3795L217.038 63.3796L219.463 59.007ZM213.177 191.479L210.752 187.107L210.752 187.107L213.177 191.479ZM127.621 238.929L130.046 243.302L130.046 243.301L127.621 238.929ZM103.879 238.929L106.304 234.557L106.304 234.556L103.879 238.929ZM18.3231 191.479L20.7482 187.107L20.748 187.107L18.3231 191.479ZM12.0366 59.007L14.4616 63.3795L14.4617 63.3795L12.0366 59.007ZM58.325 88.6241C55.9101 89.9634 55.0381 93.0068 56.3774 95.4217C57.7168 97.8366 60.7601 98.7085 63.175 97.3692L58.325 88.6241ZM173.175 36.3628C175.59 35.0235 176.462 31.9801 175.123 29.5652C173.783 27.1503 170.74 26.2784 168.325 27.6177L173.175 36.3628ZM44.8475 123.134C42.4344 121.791 39.3899 122.659 38.0473 125.072C36.7048 127.485 37.5727 130.53 39.9858 131.872L44.8475 123.134ZM76.6525 152.272C79.0656 153.614 82.1101 152.746 83.4527 150.333C84.7952 147.92 83.9273 144.876 81.5142 143.533L76.6525 152.272ZM106.304 12.4434C112.177 9.18561 119.321 9.18541 125.197 12.4435L130.046 3.69822C121.155 -1.23269 110.344 -1.23289 101.453 3.69854L106.304 12.4434ZM125.196 12.4434L217.038 63.3795L221.888 54.6344L130.046 3.69832L125.196 12.4434ZM217.038 63.3796C219.332 64.6518 220.75 67.062 220.75 69.6727H230.75C230.75 63.4214 227.355 57.666 221.888 54.6343L217.038 63.3796ZM220.75 69.6727V170.148H230.75V69.6727H220.75ZM220.75 170.148C220.75 177.19 216.925 183.683 210.752 187.107L215.602 195.852C224.948 190.669 230.75 180.83 230.75 170.148H220.75ZM210.752 187.107L125.196 234.556L130.046 243.301L215.602 195.852L210.752 187.107ZM125.196 234.556C119.321 237.815 112.177 237.814 106.304 234.557L101.453 243.301C110.344 248.233 121.155 248.233 130.046 243.302L125.196 234.556ZM106.304 234.556L20.7482 187.107L15.8981 195.852L101.454 243.301L106.304 234.556ZM20.748 187.107C14.5745 183.683 10.75 177.19 10.75 170.148H0.75C0.75 180.83 6.5512 190.669 15.8983 195.852L20.748 187.107ZM10.75 170.148V69.6727H0.75V170.148H10.75ZM10.75 69.6727C10.75 67.0618 12.1679 64.6516 14.4616 63.3795L9.61161 54.6344C4.14492 57.6662 0.75 63.4216 0.75 69.6727H10.75ZM14.4617 63.3795L106.304 12.4435L101.454 3.69844L9.61158 54.6344L14.4617 63.3795ZM3.32497 66.866L113.325 127.872L118.175 119.127L8.17503 58.1209L3.32497 66.866ZM118.175 127.872L228.175 66.866L223.325 58.1209L113.325 119.127L118.175 127.872ZM110.75 123.5V239.412H120.75V123.5H110.75ZM63.175 97.3692L173.175 36.3628L168.325 27.6177L58.325 88.6241L63.175 97.3692ZM39.9858 131.872L76.6525 152.272L81.5142 143.533L44.8475 123.134L39.9858 131.872Z" fill="#D25151"/>
</svg>
