<svg width="236" height="223" viewBox="0 0 236 223" fill="none" xmlns="http://www.w3.org/2000/svg">
<path d="M117.837 56.4857H38.3297C32.646 56.4857 29.8043 56.4857 27.4411 56.9558C17.7366 58.8861 10.1504 66.4723 8.22007 76.1768C7.75 78.54 7.75 81.3817 7.75 87.0654C7.75 92.749 7.75 95.591 8.22007 97.9542C10.1504 107.659 17.7366 115.245 27.4411 117.175C29.8043 117.645 32.646 117.645 38.3297 117.645H197.344C203.028 117.645 205.87 117.645 208.233 117.175C217.938 115.245 225.524 107.659 227.454 97.9542C227.924 95.591 227.924 92.749 227.924 87.0654C227.924 81.3817 227.924 78.54 227.454 76.1768C225.524 66.4723 217.938 58.8861 208.233 56.9558C205.87 56.4857 203.028 56.4857 197.344 56.4857H117.837ZM117.837 56.4857V215.5M19.9819 117.645V166.573C19.9819 189.637 19.9819 201.169 27.1472 208.335C34.3124 215.5 45.8447 215.5 68.9093 215.5H166.764C189.829 215.5 201.361 215.5 208.526 208.335C215.692 201.169 215.692 189.637 215.692 166.573V117.645M110.196 46.9342L85.9838 16.6694C76.8753 5.28384 59.8702 4.36548 49.5601 14.6756C34.1488 30.0869 45.0159 56.4857 66.8107 56.4857H105.605C110.534 56.4857 113.276 50.7836 110.196 46.9342ZM125.478 46.9342L149.69 16.6694C158.799 5.28384 175.804 4.36548 186.114 14.6756C201.525 30.0869 190.658 56.4857 168.863 56.4857H130.069C125.139 56.4857 122.398 50.7836 125.478 46.9342Z" stroke="#D25151" stroke-width="15" stroke-linecap="round" stroke-linejoin="round"/>
</svg>
