<svg width="70" height="70" viewBox="0 0 70 70" fill="none" xmlns="http://www.w3.org/2000/svg">
<path d="M60.3324 26.1183C55.5723 26.1183 47.1318 29.9435 47.1318 34.6616C47.1318 39.3798 55.5725 43.2049 60.3324 43.2049C65.0924 43.2049 68.9512 39.3798 68.9512 34.6616C68.9512 29.9435 65.0924 26.1183 60.3324 26.1183Z" fill="#D73737"/>
<path d="M43.6105 9.58303C43.6105 14.3015 39.7516 22.6682 34.9917 22.6682C30.2319 22.6682 26.373 14.3015 26.373 9.58303C26.373 4.86459 30.2316 1.03961 34.9917 1.03961C39.7519 1.03961 43.6105 4.86459 43.6105 9.58303Z" fill="#D73737"/>
<path d="M43.6105 60.4171C43.6105 55.6987 39.7516 47.332 34.9917 47.332C30.2319 47.332 26.373 55.6988 26.373 60.4171C26.373 65.1354 30.2316 68.9604 34.9917 68.9604C39.7519 68.9604 43.6105 65.1355 43.6105 60.4171Z" fill="#D73737"/>
<path d="M9.6677 26.1183C14.4278 26.1183 22.8685 29.9435 22.8685 34.6616C22.8685 39.3798 14.4278 43.2049 9.6677 43.2049C4.90757 43.2049 1.04893 39.3801 1.04893 34.6618C1.04893 29.9435 4.90771 26.1183 9.6677 26.1183Z" fill="#D73737"/>
<path d="M54.6903 12.8149C50.122 14.1411 43.1062 20.1634 44.444 24.6917C45.7819 29.2199 54.9668 30.5391 59.5351 29.213C64.1034 27.8868 66.7219 23.141 65.3841 18.6128C64.0464 14.0845 59.2585 11.4889 54.6903 12.8149Z" fill="#EA7B7B"/>
<path d="M29.2738 10.0507C30.6771 14.5595 29.478 23.682 24.9294 25.0729C20.3809 26.4637 14.2053 19.5963 12.8021 15.0876C11.3988 10.5789 13.9487 5.79633 18.4972 4.40535C23.0458 3.01437 27.8707 5.54203 29.2738 10.0507Z" fill="#EA7B7B"/>
<path d="M15.2929 55.1794C19.8612 53.8532 26.8769 47.8309 25.5392 43.3027C24.2014 38.7744 15.0164 37.4552 10.4481 38.7814C5.87981 40.1075 3.26128 44.8533 4.59903 49.3816C5.93678 53.9098 10.7246 56.5056 15.2929 55.1794Z" fill="#EA7B7B"/>
<path d="M40.7093 57.9435C39.3061 53.4347 40.5052 44.3122 45.0538 42.9213C49.6023 41.5304 55.7778 48.3979 57.1811 52.9066C58.5844 57.4153 56.0345 62.1979 51.486 63.5888C46.9374 64.9797 42.1126 62.4522 40.7093 57.9435Z" fill="#EA7B7B"/>
<path d="M40.7093 10.0507C39.3061 14.5595 40.5052 23.682 45.0538 25.0729C49.6023 26.4637 55.7778 19.5963 57.1811 15.0876C58.5844 10.5789 56.0345 5.79633 51.486 4.40535C46.9374 3.01437 42.1126 5.54203 40.7093 10.0507Z" fill="#991A1A"/>
<path d="M15.2929 12.8149C19.8612 14.1411 26.8769 20.1634 25.5392 24.6917C24.2014 29.2199 15.0164 30.5391 10.4481 29.213C5.87981 27.8868 3.26128 23.141 4.59903 18.6128C5.93678 14.0845 10.7246 11.4889 15.2929 12.8149Z" fill="#991A1A"/>
<path d="M29.2738 57.9435C30.6771 53.4347 29.478 44.3122 24.9294 42.9213C20.3809 41.5304 14.2053 48.3979 12.8021 52.9066C11.3988 57.4153 13.9487 62.1979 18.4972 63.5888C23.0459 64.9797 27.8707 62.4522 29.2738 57.9435Z" fill="#991A1A"/>
<path d="M54.6903 55.1794C50.122 53.8532 43.1062 47.8309 44.444 43.3027C45.7819 38.7744 54.9668 37.4552 59.5351 38.7814C64.1034 40.1075 66.7219 44.8533 65.3841 49.3816C64.0464 53.9097 59.2585 56.5056 54.6903 55.1794Z" fill="#991A1A"/>
<path d="M50.3376 31.4478C46.9716 34.7843 38.2747 37.9956 34.9088 34.6593C31.543 31.3229 34.7829 22.702 38.1487 19.3657C41.5146 16.0293 46.9718 16.0292 50.3376 19.3657C53.7033 22.702 53.7033 28.1114 50.3376 31.4478Z" fill="#D25151"/>
<path d="M31.6688 49.9529C35.0348 46.6164 38.2745 37.9956 34.9087 34.6593C31.5429 31.3229 22.8458 34.5345 19.4799 37.8708C16.1141 41.2072 16.114 46.6166 19.4799 49.9529C22.8459 53.2893 28.3031 53.2894 31.6688 49.9529Z" fill="#D25151"/>
<path d="M31.6688 19.3657C35.0348 22.7021 38.2745 31.3229 34.9087 34.6593C31.5429 37.9956 22.8458 34.7841 19.4799 31.4478C16.1141 28.1114 16.114 22.702 19.4799 19.3657C22.8459 16.0293 28.3031 16.0293 31.6688 19.3657Z" fill="#D25151"/>
<path d="M50.3376 37.8708C46.9716 34.5343 38.2747 31.3229 34.9088 34.6593C31.543 37.9956 34.7829 46.6166 38.1487 49.9529C41.5146 53.2893 46.9718 53.2894 50.3376 49.9529C53.7033 46.6166 53.7033 41.2072 50.3376 37.8708Z" fill="#D25151"/>
<path d="M43.6105 21.5767C43.6105 26.2951 39.7516 34.6619 34.9917 34.6619C30.2319 34.6619 26.373 26.2951 26.373 21.5767C26.373 16.8582 30.2316 13.0333 34.9917 13.0333C39.7519 13.0333 43.6105 16.8582 43.6105 21.5767Z" fill="#E6705B"/>
<path d="M43.6105 47.7468C43.6105 43.0284 39.7516 34.6616 34.9917 34.6616C30.2319 34.6616 26.373 43.0284 26.373 47.7468C26.373 52.4653 30.2319 56.2901 34.9917 56.2901C39.7516 56.2901 43.6105 52.4653 43.6105 47.7468Z" fill="#E6705B"/>
<path d="M21.7909 26.1183C26.551 26.1183 34.9917 29.9435 34.9917 34.6616C34.9917 39.3798 26.551 43.2049 21.7909 43.2049C17.0308 43.2049 13.1721 39.3798 13.1721 34.6616C13.1721 29.9435 17.0308 26.1183 21.7909 26.1183Z" fill="#D73737"/>
<path d="M48.1923 26.1183C43.4322 26.1183 34.9915 29.9435 34.9915 34.6616C34.9915 39.3798 43.4322 43.2049 48.1923 43.2049C52.9524 43.2049 56.811 39.3798 56.811 34.6616C56.811 29.9435 52.9524 26.1183 48.1923 26.1183Z" fill="#D73737"/>
<path d="M35.0001 38.0164C36.6808 38.0164 38.0432 36.6659 38.0432 35C38.0432 33.3341 36.6808 31.9836 35.0001 31.9836C33.3195 31.9836 31.9571 33.3341 31.9571 35C31.9571 36.6659 33.3195 38.0164 35.0001 38.0164Z" fill="#D25151"/>
<path d="M70 34.6618C70 31.1976 68.1257 28.0425 65.1435 26.3479C65.3033 26.1104 67.5475 22.4688 66.3907 18.3209C65.3826 14.7063 62.2448 12.092 58.5597 11.5387C58.4296 10.3488 58.0739 9.1819 57.4927 8.09184C56.2861 5.82887 54.2646 4.16049 51.7952 3.41223C47.096 1.98857 43.6898 4.51746 43.3462 4.7585C41.6281 1.83641 38.4573 0 34.9916 0C31.5266 0 28.3552 1.83654 26.6371 4.75836C26.2935 4.51732 22.974 1.95398 18.1883 3.41209C17.6346 3.5808 17.3244 4.16336 17.4952 4.71201C17.6659 5.26066 18.2529 5.56787 18.8064 5.39902C20.7388 4.80813 22.7873 4.9983 24.5751 5.9351C26.3628 6.87162 27.6755 8.44211 28.2717 10.3573C28.5977 11.4047 28.7745 12.7719 28.778 14.2427C28.1743 14.7459 27.6343 15.3211 27.1696 15.9544C25.6774 15.7058 24.179 15.807 22.7765 16.2273C20.5955 14.1537 17.8841 12.4841 15.5875 11.8174C14.9158 11.6225 14.2343 11.5035 13.5525 11.4543C13.8145 9.74477 14.6704 8.1509 15.9794 6.98428C16.4101 6.60037 16.4453 5.94303 16.0581 5.51605C15.671 5.08908 15.0078 5.05422 14.5769 5.43799C12.8073 7.01531 11.6863 9.20514 11.4282 11.5344C10.322 11.7005 5.38921 12.7657 3.59244 18.3206C2.69412 21.098 3.28321 24.0507 4.84261 26.3562C1.86794 28.0526 0 31.2 0 34.6618C0 37.8863 1.6114 40.8421 4.26869 42.6121C3.13411 44.8037 2.89108 47.3004 3.59244 49.6737C4.64841 53.248 7.74583 55.9002 11.4236 56.4566C11.5538 57.6462 11.9094 58.813 12.4905 59.9026C13.6971 62.1656 15.7601 63.7107 18.1881 64.5822C21.1222 65.6354 25.7926 63.7685 25.9091 63.7012C27.2791 67.4241 30.8895 70 34.9917 70C39.079 70 42.7018 67.4197 44.0739 63.701C45.2549 64.434 47.38 65.0125 48.9334 65.0125C49.8911 65.0125 50.854 64.8699 51.7953 64.5821C52.3488 64.4127 52.6592 63.8308 52.4884 63.2822C52.3177 62.7337 51.7313 62.4266 51.177 62.5952C49.2449 63.1861 47.1959 62.9959 45.4084 62.0592C43.6207 61.1227 42.3078 59.5522 41.7118 57.6371C41.4855 56.9101 41.3289 56.0139 41.2548 55.0382C41.8328 54.5497 42.3522 53.9957 42.8009 53.3869C43.2825 53.4587 43.765 53.4953 44.2447 53.4953C45.6161 53.4953 46.9635 53.204 48.2023 52.6526C52.2003 56.2903 55.7489 56.4933 56.4308 56.5425C56.1589 58.328 55.2442 59.9728 53.8372 61.1544C53.3951 61.5256 53.3016 62.2173 53.7149 62.6196C54.3445 63.2327 54.9959 62.9063 55.193 62.7409C57.092 61.1464 58.2885 58.8908 58.5554 56.4603C59.6616 56.2942 60.7414 55.9359 61.7521 55.3879C64.0177 54.1596 65.6651 52.1303 66.3909 49.6739C67.0911 47.3035 66.8499 44.8103 65.719 42.6206C68.3836 40.8514 70 37.8913 70 34.6618ZM67.9024 34.6618C67.9024 37.1823 66.6448 39.4931 64.5704 40.8804C63.3499 39.4082 61.7153 38.3312 59.83 37.7839C59.1358 37.5823 58.3375 37.4361 57.4768 37.3481C57.7259 36.493 57.86 35.5914 57.86 34.6618C57.86 33.2449 57.5458 31.9004 56.9866 30.6893C58.0347 30.6119 59.0023 30.451 59.83 30.2107C61.3266 29.7764 62.6645 29.0068 63.7637 27.972C66.2931 29.2469 67.9024 31.8214 67.9024 34.6618ZM45.4082 5.9351C47.1958 4.9983 49.2442 4.80799 51.1769 5.39902C53.1091 5.98979 54.6935 7.29107 55.6381 9.06322C56.5829 10.8354 56.7749 12.8661 56.1788 14.7813C56.008 15.33 56.3199 15.9071 56.8719 16.0813C57.5665 16.3004 58.0442 15.8409 58.1833 15.3943C58.3627 14.8177 58.4842 14.233 58.5524 13.6462C61.3012 14.1749 63.5748 16.187 64.3778 18.9051C64.946 20.8284 64.7246 22.8562 63.7544 24.6147C62.7842 26.3732 61.1811 27.6519 59.2406 28.2152C58.2764 28.4951 57.0606 28.6493 55.7232 28.6621C55.1679 27.9788 54.5202 27.3729 53.7989 26.8621C54.0251 25.4114 53.9136 23.9574 53.4922 22.5956C54.5957 21.5085 55.6131 20.2556 56.4586 18.9395C56.7698 18.4553 56.6259 17.8125 56.1373 17.5042C55.6487 17.1959 55.0005 17.3385 54.6893 17.8228C54.0724 18.7832 53.3534 19.7039 52.5757 20.5395C52.1658 19.8536 51.6658 19.2117 51.0794 18.6304C48.8978 16.468 45.8324 15.4781 42.7977 15.932C42.3367 15.3074 41.8017 14.7399 41.2052 14.2425C41.2088 12.7736 41.387 11.4008 41.7118 10.3573C42.3076 8.44197 43.6206 6.87148 45.4082 5.9351ZM41.477 42.6897C42.1679 44.498 42.5618 46.3258 42.5618 47.7468C42.5618 51.8845 39.1658 55.2506 34.9917 55.2506C30.8176 55.2506 27.4218 51.8844 27.4218 47.7468C27.4218 46.3195 27.8171 44.4883 28.5119 42.6744C32.4482 40.9389 34.3486 38.7115 34.3753 38.6706C34.579 38.7017 34.7879 38.7179 35.0003 38.7179C35.2033 38.7179 35.4027 38.7026 35.5979 38.6743C37.0581 40.3895 39.2411 41.7461 41.477 42.6897ZM14.2208 34.6618C14.2208 30.5241 17.6168 27.158 21.7908 27.158C25.0031 27.158 29.8785 29.0068 32.3798 31.5494C31.4812 32.2939 30.9083 33.4126 30.9083 34.6618C30.9083 35.9097 31.4802 37.0274 32.3773 37.772C29.8047 40.3784 24.846 42.1656 21.7909 42.1656C17.6167 42.1656 14.2208 38.7993 14.2208 34.6618ZM35.0001 36.6386C33.9005 36.6386 33.0059 35.7518 33.0059 34.6616C33.0059 33.5714 33.9005 32.6847 35.0001 32.6847C36.0998 32.6847 36.9946 33.5714 36.9946 34.6616C36.9946 35.7518 36.0998 36.6386 35.0001 36.6386ZM35.5976 30.6493C35.4025 30.6209 35.203 30.6057 35.0001 30.6057C34.7898 30.6057 34.5833 30.6217 34.3815 30.6521C32.9893 29.0296 30.8233 27.6356 28.5117 26.6477C27.8173 24.8348 27.4216 23.0018 27.4216 21.5768C27.4216 17.4392 30.8176 14.073 34.9916 14.073C39.1655 14.073 42.5617 17.4393 42.5617 21.5768C42.5617 22.9968 42.1696 24.8196 41.4805 26.6256C39.176 27.6032 37.0067 28.9941 35.5976 30.6493ZM43.9233 17.9128C46.0256 17.8243 48.0825 18.6006 49.5958 20.1008C51.1314 21.6228 51.9117 23.6742 51.8036 25.7749C50.687 25.3274 49.4688 25.0786 48.1924 25.0786C46.9392 25.0786 45.4815 25.3131 43.9868 25.7395C44.4208 24.2483 44.6593 22.7969 44.6593 21.5765C44.6593 20.2795 44.3967 19.0422 43.9233 17.9128ZM30.276 9.74436C29.8584 8.40205 29.1634 7.19359 28.2453 6.1775C29.5324 3.67459 32.1342 2.07908 34.9916 2.07908C37.8496 2.07908 40.4509 3.67445 41.738 6.1775C40.82 7.19359 40.1249 8.40191 39.7073 9.74436C39.4206 10.6657 39.2353 11.7491 39.1545 12.9288C37.893 12.3297 36.4812 11.9934 34.9916 11.9934C33.5028 11.9934 32.0921 12.3293 30.8312 12.9276C30.7508 11.7492 30.5639 10.6687 30.276 9.74436ZM26.0571 17.92C25.5857 19.0475 25.324 20.2822 25.324 21.5768C25.324 22.7995 25.5639 24.2553 25.9997 25.7502C24.5075 25.3191 23.0493 25.0787 21.7909 25.0787C20.452 25.0787 19.1761 25.3503 18.0156 25.8401C17.8873 23.7169 18.6692 21.6396 20.2217 20.1008C21.7839 18.5521 23.8992 17.7795 26.0571 17.92ZM2.09773 34.6618C2.09773 31.8231 3.7014 29.2538 6.22505 27.9773C6.72972 28.4502 7.29094 28.8753 7.90637 29.2396C8.07492 29.3394 8.75697 29.7031 9.34467 28.8802C9.67928 28.4115 9.47929 27.7491 8.98206 27.4546C6.02422 25.7033 4.63558 22.1875 5.60548 18.9049C6.17374 16.9814 7.46377 15.3923 9.23778 14.4307C11.0121 13.469 13.0575 13.2496 14.998 13.8127C16.745 14.3199 18.8686 15.5786 20.6747 17.141C19.979 17.5484 19.3279 18.0463 18.7384 18.6307C16.5104 20.8392 15.5239 23.9157 16.0349 26.9678C15.3737 27.455 14.7784 28.0247 14.2619 28.6601C13.4382 28.6537 12.6568 28.5934 11.9424 28.4788C11.3705 28.3875 10.8322 28.7723 10.7397 29.3392C10.6471 29.906 11.0358 30.4397 11.6076 30.5315C12.0519 30.6027 12.5159 30.6556 12.9959 30.691C12.4373 31.9018 12.1233 33.2459 12.1233 34.662C12.1233 35.5945 12.261 36.495 12.5127 37.348C11.6497 37.4359 10.8488 37.5821 10.1535 37.7841C8.27119 38.3305 6.63883 39.4048 5.41914 40.8733C3.35079 39.4848 2.09773 37.1778 2.09773 34.6618ZM5.60562 49.0894C5.03736 47.1659 5.25873 45.1381 6.22905 43.3796C7.19936 41.6212 8.80234 40.3426 10.743 39.7791C11.4838 39.5641 12.3849 39.4227 13.3719 39.3634C14.0408 40.5357 14.95 41.5563 16.0354 42.356C15.8431 43.5163 15.8676 44.6828 16.0948 45.8035C14.1 47.8833 12.4655 50.4623 11.8002 52.6001C11.6206 53.1768 11.4992 53.7616 11.431 54.3486C8.68662 53.8163 6.40297 51.7884 5.60562 49.0894ZM18.8064 62.5953C16.8742 62.0046 15.2899 60.7033 14.3452 58.9311C13.4004 57.1591 13.2084 55.1283 13.8044 53.213C14.2968 51.6309 15.4282 49.7431 16.8608 48.0672C17.3265 49.0252 17.9563 49.9127 18.7384 50.6879C18.9431 50.891 19.7111 51.2195 20.2216 50.6881C20.6211 50.2722 20.6312 49.6238 20.2216 49.2179C18.6804 47.6901 17.8963 45.6068 18.0192 43.485C19.1787 43.9739 20.4534 44.2448 21.791 44.2448C23.0184 44.2448 24.4847 44.0046 26.0014 43.5671C25.5643 45.064 25.3242 46.5209 25.3242 47.7468C25.3242 49.0399 25.5854 50.2735 26.0559 51.4C24.9824 51.4678 23.905 51.3103 22.8939 50.9317C22.352 50.7288 21.7469 50.9998 21.5421 51.5368C21.3374 52.074 21.6108 52.6738 22.1527 52.8767C23.2502 53.2876 24.4083 53.4954 25.5723 53.4954C26.1039 53.4954 26.6364 53.4494 27.1652 53.3624C27.6183 53.9812 28.1439 54.5441 28.73 55.0394C28.6559 56.0164 28.4992 56.9075 28.2722 57.6375C27.6761 59.5528 26.3633 61.1233 24.5756 62.0597C22.7873 62.996 20.7387 63.1862 18.8064 62.5953ZM39.7072 58.25C40.2058 59.8525 41.0997 61.2639 42.2973 62.3845C41.4128 65.6171 38.4098 67.9206 34.9916 67.9206C31.5612 67.9206 28.5699 65.6213 27.686 62.3844C28.8838 61.2638 29.7773 59.8523 30.2762 58.2498C30.4549 57.6758 30.5953 57.0257 30.696 56.3281C31.991 56.9678 33.4493 57.3296 34.9919 57.3296C36.5335 57.3296 37.9908 56.9682 39.2854 56.3294C39.3851 57.0257 39.5262 57.6684 39.7072 58.25ZM43.9252 51.4058C44.3972 50.2776 44.6593 49.0422 44.6593 47.7468C44.6593 46.5253 44.4196 45.0702 43.9843 43.5762C44.8276 43.818 45.6408 43.995 46.3857 44.1038C46.4376 44.1115 47.4457 44.1965 47.5763 43.2269C47.653 42.6579 47.2646 42.1306 46.6916 42.0468C43.7688 41.6196 39.8386 40.0378 37.6119 37.7814C38.5156 37.0368 39.092 35.9148 39.092 34.6618C39.092 33.4097 38.5163 32.2885 37.6138 31.5438C40.1236 29.0109 45.0263 27.1578 48.1924 27.1578C52.3666 27.1578 55.7624 30.5241 55.7624 34.6616C55.7624 38.1667 53.3616 41.1713 49.9244 41.9684C49.3604 42.0991 49.0278 42.6546 49.1419 43.2175C49.3333 44.1618 50.3217 44.0115 50.402 43.9931C50.8857 43.881 51.3523 43.7326 51.8017 43.5549C51.9024 45.6526 51.1167 47.7105 49.596 49.2178C48.0851 50.7153 46.027 51.4931 43.9252 51.4058ZM64.3778 49.0894C63.8096 51.0129 62.5195 52.602 60.7454 53.5637C58.9714 54.5254 56.9259 54.7448 54.9852 54.1816C53.5215 53.7569 51.7371 52.7714 50.1198 51.5184C50.4547 51.2639 50.7763 50.9884 51.0794 50.6882C53.2579 48.5286 54.2591 45.4861 53.8018 42.4791C54.9694 41.6593 55.933 40.594 56.6279 39.3647C57.6084 39.4246 58.5033 39.5652 59.2406 39.7791C61.1811 40.3424 62.7842 41.6212 63.7544 43.3796C64.7246 45.1381 64.946 47.1659 64.3778 49.0894Z" fill="black"/>
</svg>
