<svg width="235" height="70" viewBox="0 0 235 70" fill="none" xmlns="http://www.w3.org/2000/svg">
<path d="M60.3324 26.1183C55.5723 26.1183 47.1318 29.9435 47.1318 34.6616C47.1318 39.3798 55.5725 43.2049 60.3324 43.2049C65.0924 43.2049 68.9512 39.3798 68.9512 34.6616C68.9512 29.9435 65.0924 26.1183 60.3324 26.1183Z" fill="#D73737"/>
<path d="M43.6105 9.58303C43.6105 14.3015 39.7516 22.6682 34.9917 22.6682C30.2319 22.6682 26.373 14.3015 26.373 9.58303C26.373 4.86459 30.2316 1.03961 34.9917 1.03961C39.7519 1.03961 43.6105 4.86459 43.6105 9.58303Z" fill="#D73737"/>
<path d="M43.6105 60.4171C43.6105 55.6987 39.7516 47.332 34.9917 47.332C30.2319 47.332 26.373 55.6988 26.373 60.4171C26.373 65.1354 30.2316 68.9604 34.9917 68.9604C39.7519 68.9604 43.6105 65.1355 43.6105 60.4171Z" fill="#D73737"/>
<path d="M9.6677 26.1183C14.4278 26.1183 22.8685 29.9435 22.8685 34.6616C22.8685 39.3798 14.4278 43.2049 9.6677 43.2049C4.90757 43.2049 1.04893 39.3801 1.04893 34.6618C1.04893 29.9435 4.90771 26.1183 9.6677 26.1183Z" fill="#D73737"/>
<path d="M54.6903 12.8149C50.122 14.1411 43.1062 20.1634 44.444 24.6917C45.7819 29.2199 54.9668 30.5391 59.5351 29.213C64.1034 27.8868 66.7219 23.141 65.3841 18.6128C64.0464 14.0845 59.2585 11.4889 54.6903 12.8149Z" fill="#EA7B7B"/>
<path d="M29.2738 10.0507C30.6771 14.5595 29.478 23.682 24.9294 25.0729C20.3809 26.4637 14.2053 19.5963 12.8021 15.0876C11.3988 10.5789 13.9487 5.79633 18.4972 4.40535C23.0458 3.01437 27.8707 5.54203 29.2738 10.0507Z" fill="#EA7B7B"/>
<path d="M15.2929 55.1794C19.8612 53.8532 26.8769 47.8309 25.5392 43.3027C24.2014 38.7744 15.0164 37.4552 10.4481 38.7814C5.87981 40.1075 3.26128 44.8533 4.59903 49.3816C5.93678 53.9098 10.7246 56.5056 15.2929 55.1794Z" fill="#EA7B7B"/>
<path d="M40.7093 57.9435C39.3061 53.4347 40.5052 44.3122 45.0538 42.9213C49.6023 41.5304 55.7778 48.3979 57.1811 52.9066C58.5844 57.4153 56.0345 62.1979 51.486 63.5888C46.9374 64.9797 42.1126 62.4522 40.7093 57.9435Z" fill="#EA7B7B"/>
<path d="M40.7093 10.0507C39.3061 14.5595 40.5052 23.682 45.0538 25.0729C49.6023 26.4637 55.7778 19.5963 57.1811 15.0876C58.5844 10.5789 56.0345 5.79633 51.486 4.40535C46.9374 3.01437 42.1126 5.54203 40.7093 10.0507Z" fill="#991A1A"/>
<path d="M15.2929 12.8149C19.8612 14.1411 26.8769 20.1634 25.5392 24.6917C24.2014 29.2199 15.0164 30.5391 10.4481 29.213C5.87981 27.8868 3.26128 23.141 4.59903 18.6128C5.93678 14.0845 10.7246 11.4889 15.2929 12.8149Z" fill="#991A1A"/>
<path d="M29.2738 57.9435C30.6771 53.4347 29.478 44.3122 24.9294 42.9213C20.3809 41.5304 14.2053 48.3979 12.8021 52.9066C11.3988 57.4153 13.9487 62.1979 18.4972 63.5888C23.0459 64.9797 27.8707 62.4522 29.2738 57.9435Z" fill="#991A1A"/>
<path d="M54.6903 55.1794C50.122 53.8532 43.1062 47.8309 44.444 43.3027C45.7819 38.7744 54.9668 37.4552 59.5351 38.7814C64.1034 40.1075 66.7219 44.8533 65.3841 49.3816C64.0464 53.9097 59.2585 56.5056 54.6903 55.1794Z" fill="#991A1A"/>
<path d="M50.3376 31.4478C46.9716 34.7843 38.2747 37.9956 34.9088 34.6593C31.543 31.3229 34.7829 22.702 38.1487 19.3657C41.5146 16.0293 46.9718 16.0292 50.3376 19.3657C53.7033 22.702 53.7033 28.1114 50.3376 31.4478Z" fill="#D25151"/>
<path d="M31.6688 49.9529C35.0348 46.6164 38.2745 37.9956 34.9087 34.6593C31.5429 31.3229 22.8458 34.5345 19.4799 37.8708C16.1141 41.2072 16.114 46.6166 19.4799 49.9529C22.8459 53.2893 28.3031 53.2894 31.6688 49.9529Z" fill="#D25151"/>
<path d="M31.6688 19.3657C35.0348 22.7021 38.2745 31.3229 34.9087 34.6593C31.5429 37.9956 22.8458 34.7841 19.4799 31.4478C16.1141 28.1114 16.114 22.702 19.4799 19.3657C22.8459 16.0293 28.3031 16.0293 31.6688 19.3657Z" fill="#D25151"/>
<path d="M50.3376 37.8708C46.9716 34.5343 38.2747 31.3229 34.9088 34.6593C31.543 37.9956 34.7829 46.6166 38.1487 49.9529C41.5146 53.2893 46.9718 53.2894 50.3376 49.9529C53.7033 46.6166 53.7033 41.2072 50.3376 37.8708Z" fill="#D25151"/>
<path d="M43.6105 21.5767C43.6105 26.2951 39.7516 34.6619 34.9917 34.6619C30.2319 34.6619 26.373 26.2951 26.373 21.5767C26.373 16.8582 30.2316 13.0333 34.9917 13.0333C39.7519 13.0333 43.6105 16.8582 43.6105 21.5767Z" fill="#E6705B"/>
<path d="M43.6105 47.7468C43.6105 43.0284 39.7516 34.6616 34.9917 34.6616C30.2319 34.6616 26.373 43.0284 26.373 47.7468C26.373 52.4653 30.2319 56.2901 34.9917 56.2901C39.7516 56.2901 43.6105 52.4653 43.6105 47.7468Z" fill="#E6705B"/>
<path d="M21.7909 26.1183C26.551 26.1183 34.9917 29.9435 34.9917 34.6616C34.9917 39.3798 26.551 43.2049 21.7909 43.2049C17.0308 43.2049 13.1721 39.3798 13.1721 34.6616C13.1721 29.9435 17.0308 26.1183 21.7909 26.1183Z" fill="#D73737"/>
<path d="M48.1923 26.1183C43.4322 26.1183 34.9915 29.9435 34.9915 34.6616C34.9915 39.3798 43.4322 43.2049 48.1923 43.2049C52.9524 43.2049 56.811 39.3798 56.811 34.6616C56.811 29.9435 52.9524 26.1183 48.1923 26.1183Z" fill="#D73737"/>
<path d="M35.0001 38.0164C36.6808 38.0164 38.0432 36.6659 38.0432 35C38.0432 33.3341 36.6808 31.9836 35.0001 31.9836C33.3195 31.9836 31.9571 33.3341 31.9571 35C31.9571 36.6659 33.3195 38.0164 35.0001 38.0164Z" fill="#D25151"/>
<path d="M70 34.6618C70 31.1976 68.1257 28.0425 65.1435 26.3479C65.3033 26.1104 67.5475 22.4688 66.3907 18.3209C65.3826 14.7063 62.2448 12.092 58.5597 11.5387C58.4296 10.3488 58.0739 9.1819 57.4927 8.09184C56.2861 5.82887 54.2646 4.16049 51.7952 3.41223C47.096 1.98857 43.6898 4.51746 43.3462 4.7585C41.6281 1.83641 38.4573 0 34.9916 0C31.5266 0 28.3552 1.83654 26.6371 4.75836C26.2935 4.51732 22.974 1.95398 18.1883 3.41209C17.6346 3.5808 17.3244 4.16336 17.4952 4.71201C17.6659 5.26066 18.2529 5.56787 18.8064 5.39902C20.7388 4.80813 22.7873 4.9983 24.5751 5.9351C26.3628 6.87162 27.6755 8.44211 28.2717 10.3573C28.5977 11.4047 28.7745 12.7719 28.778 14.2427C28.1743 14.7459 27.6343 15.3211 27.1696 15.9544C25.6774 15.7058 24.179 15.807 22.7765 16.2273C20.5955 14.1537 17.8841 12.4841 15.5875 11.8174C14.9158 11.6225 14.2343 11.5035 13.5525 11.4543C13.8145 9.74477 14.6704 8.1509 15.9794 6.98428C16.4101 6.60037 16.4453 5.94303 16.0581 5.51605C15.671 5.08908 15.0078 5.05422 14.5769 5.43799C12.8073 7.01531 11.6863 9.20514 11.4282 11.5344C10.322 11.7005 5.38921 12.7657 3.59244 18.3206C2.69412 21.098 3.28321 24.0507 4.84261 26.3562C1.86794 28.0526 0 31.2 0 34.6618C0 37.8863 1.6114 40.8421 4.26869 42.6121C3.13411 44.8037 2.89108 47.3004 3.59244 49.6737C4.64841 53.248 7.74583 55.9002 11.4236 56.4566C11.5538 57.6462 11.9094 58.813 12.4905 59.9026C13.6971 62.1656 15.7601 63.7107 18.1881 64.5822C21.1222 65.6354 25.7926 63.7685 25.9091 63.7012C27.2791 67.4241 30.8895 70 34.9917 70C39.079 70 42.7018 67.4197 44.0739 63.701C45.2549 64.434 47.38 65.0125 48.9334 65.0125C49.8911 65.0125 50.854 64.8699 51.7953 64.5821C52.3488 64.4127 52.6592 63.8308 52.4884 63.2822C52.3177 62.7337 51.7313 62.4266 51.177 62.5952C49.2449 63.1861 47.1959 62.9959 45.4084 62.0592C43.6207 61.1227 42.3078 59.5522 41.7118 57.6371C41.4855 56.9101 41.3289 56.0139 41.2548 55.0382C41.8328 54.5497 42.3522 53.9957 42.8009 53.3869C43.2825 53.4587 43.765 53.4953 44.2447 53.4953C45.6161 53.4953 46.9635 53.204 48.2023 52.6526C52.2003 56.2903 55.7489 56.4933 56.4308 56.5425C56.1589 58.328 55.2442 59.9728 53.8372 61.1544C53.3951 61.5256 53.3016 62.2173 53.7149 62.6196C54.3445 63.2327 54.9959 62.9063 55.193 62.7409C57.092 61.1464 58.2885 58.8908 58.5554 56.4603C59.6616 56.2942 60.7414 55.9359 61.7521 55.3879C64.0177 54.1596 65.6651 52.1303 66.3909 49.6739C67.0911 47.3035 66.8499 44.8103 65.719 42.6206C68.3836 40.8514 70 37.8913 70 34.6618ZM67.9024 34.6618C67.9024 37.1823 66.6448 39.4931 64.5704 40.8804C63.3499 39.4082 61.7153 38.3312 59.83 37.7839C59.1358 37.5823 58.3375 37.4361 57.4768 37.3481C57.7259 36.493 57.86 35.5914 57.86 34.6618C57.86 33.2449 57.5458 31.9004 56.9866 30.6893C58.0347 30.6119 59.0023 30.451 59.83 30.2107C61.3266 29.7764 62.6645 29.0068 63.7637 27.972C66.2931 29.2469 67.9024 31.8214 67.9024 34.6618ZM45.4082 5.9351C47.1958 4.9983 49.2442 4.80799 51.1769 5.39902C53.1091 5.98979 54.6935 7.29107 55.6381 9.06322C56.5829 10.8354 56.7749 12.8661 56.1788 14.7813C56.008 15.33 56.3199 15.9071 56.8719 16.0813C57.5665 16.3004 58.0442 15.8409 58.1833 15.3943C58.3627 14.8177 58.4842 14.233 58.5524 13.6462C61.3012 14.1749 63.5748 16.187 64.3778 18.9051C64.946 20.8284 64.7246 22.8562 63.7544 24.6147C62.7842 26.3732 61.1811 27.6519 59.2406 28.2152C58.2764 28.4951 57.0606 28.6493 55.7232 28.6621C55.1679 27.9788 54.5202 27.3729 53.7989 26.8621C54.0251 25.4114 53.9136 23.9574 53.4922 22.5956C54.5957 21.5085 55.6131 20.2556 56.4586 18.9395C56.7698 18.4553 56.6259 17.8125 56.1373 17.5042C55.6487 17.1959 55.0005 17.3385 54.6893 17.8228C54.0724 18.7832 53.3534 19.7039 52.5757 20.5395C52.1658 19.8536 51.6658 19.2117 51.0794 18.6304C48.8978 16.468 45.8324 15.4781 42.7977 15.932C42.3367 15.3074 41.8017 14.7399 41.2052 14.2425C41.2088 12.7736 41.387 11.4008 41.7118 10.3573C42.3076 8.44197 43.6206 6.87148 45.4082 5.9351ZM41.477 42.6897C42.1679 44.498 42.5618 46.3258 42.5618 47.7468C42.5618 51.8845 39.1658 55.2506 34.9917 55.2506C30.8176 55.2506 27.4218 51.8844 27.4218 47.7468C27.4218 46.3195 27.8171 44.4883 28.5119 42.6744C32.4482 40.9389 34.3486 38.7115 34.3753 38.6706C34.579 38.7017 34.7879 38.7179 35.0003 38.7179C35.2033 38.7179 35.4027 38.7026 35.5979 38.6743C37.0581 40.3895 39.2411 41.7461 41.477 42.6897ZM14.2208 34.6618C14.2208 30.5241 17.6168 27.158 21.7908 27.158C25.0031 27.158 29.8785 29.0068 32.3798 31.5494C31.4812 32.2939 30.9083 33.4126 30.9083 34.6618C30.9083 35.9097 31.4802 37.0274 32.3773 37.772C29.8047 40.3784 24.846 42.1656 21.7909 42.1656C17.6167 42.1656 14.2208 38.7993 14.2208 34.6618ZM35.0001 36.6386C33.9005 36.6386 33.0059 35.7518 33.0059 34.6616C33.0059 33.5714 33.9005 32.6847 35.0001 32.6847C36.0998 32.6847 36.9946 33.5714 36.9946 34.6616C36.9946 35.7518 36.0998 36.6386 35.0001 36.6386ZM35.5976 30.6493C35.4025 30.6209 35.203 30.6057 35.0001 30.6057C34.7898 30.6057 34.5833 30.6217 34.3815 30.6521C32.9893 29.0296 30.8233 27.6356 28.5117 26.6477C27.8173 24.8348 27.4216 23.0018 27.4216 21.5768C27.4216 17.4392 30.8176 14.073 34.9916 14.073C39.1655 14.073 42.5617 17.4393 42.5617 21.5768C42.5617 22.9968 42.1696 24.8196 41.4805 26.6256C39.176 27.6032 37.0067 28.9941 35.5976 30.6493ZM43.9233 17.9128C46.0256 17.8243 48.0825 18.6006 49.5958 20.1008C51.1314 21.6228 51.9117 23.6742 51.8036 25.7749C50.687 25.3274 49.4688 25.0786 48.1924 25.0786C46.9392 25.0786 45.4815 25.3131 43.9868 25.7395C44.4208 24.2483 44.6593 22.7969 44.6593 21.5765C44.6593 20.2795 44.3967 19.0422 43.9233 17.9128ZM30.276 9.74436C29.8584 8.40205 29.1634 7.19359 28.2453 6.1775C29.5324 3.67459 32.1342 2.07908 34.9916 2.07908C37.8496 2.07908 40.4509 3.67445 41.738 6.1775C40.82 7.19359 40.1249 8.40191 39.7073 9.74436C39.4206 10.6657 39.2353 11.7491 39.1545 12.9288C37.893 12.3297 36.4812 11.9934 34.9916 11.9934C33.5028 11.9934 32.0921 12.3293 30.8312 12.9276C30.7508 11.7492 30.5639 10.6687 30.276 9.74436ZM26.0571 17.92C25.5857 19.0475 25.324 20.2822 25.324 21.5768C25.324 22.7995 25.5639 24.2553 25.9997 25.7502C24.5075 25.3191 23.0493 25.0787 21.7909 25.0787C20.452 25.0787 19.1761 25.3503 18.0156 25.8401C17.8873 23.7169 18.6692 21.6396 20.2217 20.1008C21.7839 18.5521 23.8992 17.7795 26.0571 17.92ZM2.09773 34.6618C2.09773 31.8231 3.7014 29.2538 6.22505 27.9773C6.72972 28.4502 7.29094 28.8753 7.90637 29.2396C8.07492 29.3394 8.75697 29.7031 9.34467 28.8802C9.67928 28.4115 9.47929 27.7491 8.98206 27.4546C6.02422 25.7033 4.63558 22.1875 5.60548 18.9049C6.17374 16.9814 7.46377 15.3923 9.23778 14.4307C11.0121 13.469 13.0575 13.2496 14.998 13.8127C16.745 14.3199 18.8686 15.5786 20.6747 17.141C19.979 17.5484 19.3279 18.0463 18.7384 18.6307C16.5104 20.8392 15.5239 23.9157 16.0349 26.9678C15.3737 27.455 14.7784 28.0247 14.2619 28.6601C13.4382 28.6537 12.6568 28.5934 11.9424 28.4788C11.3705 28.3875 10.8322 28.7723 10.7397 29.3392C10.6471 29.906 11.0358 30.4397 11.6076 30.5315C12.0519 30.6027 12.5159 30.6556 12.9959 30.691C12.4373 31.9018 12.1233 33.2459 12.1233 34.662C12.1233 35.5945 12.261 36.495 12.5127 37.348C11.6497 37.4359 10.8488 37.5821 10.1535 37.7841C8.27119 38.3305 6.63883 39.4048 5.41914 40.8733C3.35079 39.4848 2.09773 37.1778 2.09773 34.6618ZM5.60562 49.0894C5.03736 47.1659 5.25873 45.1381 6.22905 43.3796C7.19936 41.6212 8.80234 40.3426 10.743 39.7791C11.4838 39.5641 12.3849 39.4227 13.3719 39.3634C14.0408 40.5357 14.95 41.5563 16.0354 42.356C15.8431 43.5163 15.8676 44.6828 16.0948 45.8035C14.1 47.8833 12.4655 50.4623 11.8002 52.6001C11.6206 53.1768 11.4992 53.7616 11.431 54.3486C8.68662 53.8163 6.40297 51.7884 5.60562 49.0894ZM18.8064 62.5953C16.8742 62.0046 15.2899 60.7033 14.3452 58.9311C13.4004 57.1591 13.2084 55.1283 13.8044 53.213C14.2968 51.6309 15.4282 49.7431 16.8608 48.0672C17.3265 49.0252 17.9563 49.9127 18.7384 50.6879C18.9431 50.891 19.7111 51.2195 20.2216 50.6881C20.6211 50.2722 20.6312 49.6238 20.2216 49.2179C18.6804 47.6901 17.8963 45.6068 18.0192 43.485C19.1787 43.9739 20.4534 44.2448 21.791 44.2448C23.0184 44.2448 24.4847 44.0046 26.0014 43.5671C25.5643 45.064 25.3242 46.5209 25.3242 47.7468C25.3242 49.0399 25.5854 50.2735 26.0559 51.4C24.9824 51.4678 23.905 51.3103 22.8939 50.9317C22.352 50.7288 21.7469 50.9998 21.5421 51.5368C21.3374 52.074 21.6108 52.6738 22.1527 52.8767C23.2502 53.2876 24.4083 53.4954 25.5723 53.4954C26.1039 53.4954 26.6364 53.4494 27.1652 53.3624C27.6183 53.9812 28.1439 54.5441 28.73 55.0394C28.6559 56.0164 28.4992 56.9075 28.2722 57.6375C27.6761 59.5528 26.3633 61.1233 24.5756 62.0597C22.7873 62.996 20.7387 63.1862 18.8064 62.5953ZM39.7072 58.25C40.2058 59.8525 41.0997 61.2639 42.2973 62.3845C41.4128 65.6171 38.4098 67.9206 34.9916 67.9206C31.5612 67.9206 28.5699 65.6213 27.686 62.3844C28.8838 61.2638 29.7773 59.8523 30.2762 58.2498C30.4549 57.6758 30.5953 57.0257 30.696 56.3281C31.991 56.9678 33.4493 57.3296 34.9919 57.3296C36.5335 57.3296 37.9908 56.9682 39.2854 56.3294C39.3851 57.0257 39.5262 57.6684 39.7072 58.25ZM43.9252 51.4058C44.3972 50.2776 44.6593 49.0422 44.6593 47.7468C44.6593 46.5253 44.4196 45.0702 43.9843 43.5762C44.8276 43.818 45.6408 43.995 46.3857 44.1038C46.4376 44.1115 47.4457 44.1965 47.5763 43.2269C47.653 42.6579 47.2646 42.1306 46.6916 42.0468C43.7688 41.6196 39.8386 40.0378 37.6119 37.7814C38.5156 37.0368 39.092 35.9148 39.092 34.6618C39.092 33.4097 38.5163 32.2885 37.6138 31.5438C40.1236 29.0109 45.0263 27.1578 48.1924 27.1578C52.3666 27.1578 55.7624 30.5241 55.7624 34.6616C55.7624 38.1667 53.3616 41.1713 49.9244 41.9684C49.3604 42.0991 49.0278 42.6546 49.1419 43.2175C49.3333 44.1618 50.3217 44.0115 50.402 43.9931C50.8857 43.881 51.3523 43.7326 51.8017 43.5549C51.9024 45.6526 51.1167 47.7105 49.596 49.2178C48.0851 50.7153 46.027 51.4931 43.9252 51.4058ZM64.3778 49.0894C63.8096 51.0129 62.5195 52.602 60.7454 53.5637C58.9714 54.5254 56.9259 54.7448 54.9852 54.1816C53.5215 53.7569 51.7371 52.7714 50.1198 51.5184C50.4547 51.2639 50.7763 50.9884 51.0794 50.6882C53.2579 48.5286 54.2591 45.4861 53.8018 42.4791C54.9694 41.6593 55.933 40.594 56.6279 39.3647C57.6084 39.4246 58.5033 39.5652 59.2406 39.7791C61.1811 40.3424 62.7842 41.6212 63.7544 43.3796C64.7246 45.1381 64.946 47.1659 64.3778 49.0894Z" fill="black"/>
<path d="M72.39 66.94C72.17 66.94 72.06 66.874 72.06 66.742C72.06 66.654 72.126 66.544 72.258 66.412C74.062 64.476 75.976 62.298 78 59.878C79.98 57.414 82.004 54.84 84.072 52.156C82.268 51.584 80.772 50.924 79.584 50.176C78.396 49.428 77.802 48.504 77.802 47.404C77.802 46.92 77.978 46.656 78.33 46.612C78.726 46.524 79.144 46.48 79.584 46.48C80.728 46.48 81.916 46.656 83.148 47.008C84.424 47.36 85.7 47.778 86.976 48.262C90.672 43.29 94.126 38.362 97.338 33.478C96.81 29.21 96.436 25.272 96.216 21.664C95.996 18.056 95.886 15.262 95.886 13.282C95.886 12.754 95.886 12.292 95.886 11.896C95.886 11.5 95.908 11.192 95.952 10.972C96.084 9.916 96.194 9.058 96.282 8.398C96.37 7.738 96.81 7.408 97.602 7.408C98.042 7.408 98.526 7.452 99.054 7.54C99.626 7.628 100.132 7.782 100.572 8.002C100.616 7.958 100.704 7.936 100.836 7.936C100.88 7.936 100.902 7.958 100.902 8.002C100.946 8.002 100.99 8.002 101.034 8.002C102.398 8.662 103.542 9.652 104.466 10.972C105.39 12.248 105.852 13.964 105.852 16.12C105.852 17.792 105.5 19.75 104.796 21.994C104.092 24.238 102.948 26.834 101.364 29.782C101.364 33.39 101.496 36.932 101.76 40.408C102.024 43.884 102.42 47.096 102.948 50.044C103.036 50.66 103.146 51.254 103.278 51.826C103.41 52.398 103.52 52.948 103.608 53.476C104.488 53.388 105.522 53.234 106.71 53.014C107.942 52.794 109.152 52.486 110.34 52.09C111.528 51.65 112.518 51.122 113.31 50.506C114.146 49.89 114.564 49.186 114.564 48.394C114.564 48.174 114.63 48.064 114.762 48.064C114.894 48.064 115.048 48.24 115.224 48.592C115.4 48.9 115.488 49.318 115.488 49.846C115.488 51.87 112.672 53.3 107.04 54.136C106.468 54.224 105.896 54.378 105.324 54.598C104.752 54.818 104.334 55.104 104.07 55.456C104.686 57.744 105.302 59.526 105.918 60.802C106.534 62.078 107.128 63.222 107.7 64.234C107.7 64.366 107.568 64.432 107.304 64.432C106.996 64.432 106.578 64.3 106.05 64.036C105.522 63.772 105.082 63.354 104.73 62.782C104.422 62.166 104.114 61.55 103.806 60.934C103.498 60.274 103.19 59.592 102.882 58.888C101.738 57.216 100.748 56.072 99.912 55.456C99.12 54.796 98.614 54.444 98.394 54.4C98.482 54.4 97.888 54.356 96.612 54.268C95.38 54.18 93.796 54.004 91.86 53.74C89.968 53.476 88.054 53.124 86.118 52.684C83.038 56.908 80.31 60.34 77.934 62.98C75.514 65.62 73.666 66.94 72.39 66.94ZM101.364 26.746C102.596 24.414 103.454 22.412 103.938 20.74C104.466 19.068 104.73 17.616 104.73 16.384C104.73 15.064 104.466 13.964 103.938 13.084C103.454 12.204 102.838 11.478 102.09 10.906C101.914 13.326 101.738 15.878 101.562 18.562C101.43 21.246 101.364 23.974 101.364 26.746ZM101.1 53.344C100.352 50.616 99.692 47.756 99.12 44.764C98.548 41.772 98.064 38.802 97.668 35.854C96.128 38.186 94.61 40.452 93.114 42.652C91.618 44.852 90.166 46.964 88.758 48.988C90.782 49.824 92.828 50.682 94.896 51.562C97.008 52.442 99.076 53.036 101.1 53.344ZM118.501 65.092C118.061 65.092 117.445 64.74 116.653 64.036C115.905 63.376 115.377 62.496 115.069 61.396C114.893 60.648 114.761 59.636 114.673 58.36C114.585 57.084 114.541 55.654 114.541 54.07C114.541 51.43 114.585 48.592 114.673 45.556C114.805 42.52 114.871 39.792 114.871 37.372C114.871 36.58 114.849 35.832 114.805 35.128C114.805 34.424 114.783 33.808 114.739 33.28C114.651 33.192 114.387 33.126 113.947 33.082C113.551 32.994 113.155 32.928 112.759 32.884C112.407 32.796 112.231 32.752 112.231 32.752C112.231 32.664 112.561 32.466 113.221 32.158C113.925 31.806 114.915 31.63 116.191 31.63C117.511 31.63 118.369 31.916 118.765 32.488C119.205 33.016 119.425 33.478 119.425 33.874C119.425 33.962 119.425 34.072 119.425 34.204C119.425 34.336 119.403 34.446 119.359 34.534C118.963 36.338 118.589 38.186 118.237 40.078C117.929 41.97 117.687 44.148 117.511 46.612C117.687 46.48 117.841 46.326 117.973 46.15C118.105 45.93 118.347 45.776 118.699 45.688C119.095 45.6 119.535 45.688 120.019 45.952C120.503 46.216 120.899 46.348 121.207 46.348C122.747 46.304 123.869 45.974 124.573 45.358C125.277 44.698 125.959 44.148 126.619 43.708C126.707 40.144 127.059 37.306 127.675 35.194C128.291 33.038 128.973 31.96 129.721 31.96C130.117 31.96 130.469 32.29 130.777 32.95C131.085 33.566 131.239 34.512 131.239 35.788C131.239 36.8 131.041 37.944 130.645 39.22C130.249 40.452 130.051 41.904 130.051 43.576C130.051 44.676 130.139 45.908 130.315 47.272C130.491 48.592 130.733 49.868 131.041 51.1C131.349 52.288 131.701 53.278 132.097 54.07C132.493 54.818 132.911 55.192 133.351 55.192C133.923 55.192 134.495 54.84 135.067 54.136C135.639 53.388 136.189 52.53 136.717 51.562C137.245 50.594 137.707 49.758 138.103 49.054C138.543 48.306 138.895 47.932 139.159 47.932C139.291 47.932 139.357 48.042 139.357 48.262C139.357 48.438 139.291 48.724 139.159 49.12C138.059 51.584 137.135 53.498 136.387 54.862C135.639 56.182 134.605 56.842 133.285 56.842C132.273 56.842 131.261 56.402 130.249 55.522C129.589 54.906 129.017 54.004 128.533 52.816C128.049 51.584 127.653 50.286 127.345 48.922C127.081 47.558 126.861 46.348 126.685 45.292C126.245 45.996 125.475 46.612 124.375 47.14C123.319 47.624 122.219 47.866 121.075 47.866C120.327 47.866 119.645 47.734 119.029 47.47C118.589 47.25 118.281 47.316 118.105 47.668C117.929 47.976 117.819 48.394 117.775 48.922C117.775 49.406 117.775 49.802 117.775 50.11C117.819 51.254 117.885 52.618 117.973 54.202C118.105 55.742 118.237 57.26 118.369 58.756C118.501 60.252 118.611 61.528 118.699 62.584C118.787 63.64 118.853 64.212 118.897 64.3C118.941 64.388 118.963 64.498 118.963 64.63C118.963 64.938 118.809 65.092 118.501 65.092ZM142.622 65.092C142.182 65.092 141.566 64.74 140.774 64.036C140.026 63.376 139.498 62.496 139.19 61.396C139.014 60.648 138.882 59.636 138.794 58.36C138.706 57.084 138.662 55.654 138.662 54.07C138.662 51.43 138.706 48.592 138.794 45.556C138.926 42.52 138.992 39.792 138.992 37.372C138.992 36.58 138.97 35.832 138.926 35.128C138.926 34.424 138.904 33.808 138.86 33.28C138.772 33.192 138.508 33.126 138.068 33.082C137.672 32.994 137.276 32.928 136.88 32.884C136.528 32.796 136.352 32.752 136.352 32.752C136.352 32.664 136.682 32.466 137.342 32.158C138.046 31.806 139.036 31.63 140.312 31.63C141.632 31.63 142.49 31.916 142.886 32.488C143.326 33.016 143.546 33.478 143.546 33.874C143.546 33.962 143.546 34.072 143.546 34.204C143.546 34.336 143.524 34.446 143.48 34.534C143.084 36.338 142.732 38.186 142.424 40.078C142.116 41.926 141.852 44.038 141.632 46.414H141.83C143.326 46.414 144.866 46.106 146.45 45.49C148.078 44.83 149.464 44.148 150.608 43.444C151.224 41.992 151.796 40.672 152.324 39.484C152.896 38.296 153.336 37.416 153.644 36.844C153.908 36.36 154.216 36.03 154.568 35.854C154.92 35.634 155.25 35.524 155.558 35.524C156.042 35.524 156.46 35.612 156.812 35.788C157.208 35.92 157.56 36.096 157.868 36.316C158.704 35.92 159.562 35.612 160.442 35.392C161.366 35.128 162.268 34.996 163.148 34.996C164.16 34.996 165.04 35.392 165.788 36.184C166.536 36.976 166.91 38.142 166.91 39.682C166.91 40.914 166.602 42.388 165.986 44.104C165.414 45.82 164.622 47.58 163.61 49.384C162.642 51.188 161.52 52.882 160.244 54.466C158.968 56.006 157.648 57.26 156.284 58.228C154.92 59.196 153.6 59.68 152.324 59.68C150.74 59.68 149.574 59.174 148.826 58.162C148.078 57.106 147.704 55.83 147.704 54.334C147.704 53.19 147.902 51.848 148.298 50.308C148.738 48.768 149.244 47.206 149.816 45.622C148.232 46.326 146.648 46.854 145.064 47.206C143.48 47.514 142.402 47.712 141.83 47.8V48.46C141.83 49.164 141.852 50.132 141.896 51.364C141.984 52.596 142.072 53.938 142.16 55.39C142.292 56.842 142.402 58.228 142.49 59.548C142.622 60.868 142.732 61.968 142.82 62.848C142.908 63.728 142.974 64.212 143.018 64.3C143.062 64.388 143.084 64.498 143.084 64.63C143.084 64.938 142.93 65.092 142.622 65.092ZM153.05 58.294C153.974 58.294 154.92 57.876 155.888 57.04C156.9 56.204 157.89 55.148 158.858 53.872C159.826 52.596 160.684 51.276 161.432 49.912C161.784 49.296 162.18 48.46 162.62 47.404C163.104 46.348 163.5 45.226 163.808 44.038C164.16 42.85 164.336 41.772 164.336 40.804C164.336 39.924 164.138 39.198 163.742 38.626C163.39 38.01 162.708 37.702 161.696 37.702C161.212 37.702 160.596 37.834 159.848 38.098C159.1 38.362 158.308 38.67 157.472 39.022C157.296 39.198 157.12 39.396 156.944 39.616C156.812 39.792 156.702 39.99 156.614 40.21C155.778 41.75 154.942 43.466 154.106 45.358C153.27 47.206 152.566 49.01 151.994 50.77C151.466 52.53 151.202 54.07 151.202 55.39C151.202 57.326 151.818 58.294 153.05 58.294ZM174.193 65.95C173.841 65.95 173.269 65.62 172.477 64.96C171.685 64.344 171.179 63.618 170.959 62.782C170.651 61.682 170.453 60.23 170.365 58.426C170.277 56.622 170.233 54.664 170.233 52.552C170.233 50.308 170.255 48.02 170.299 45.688C170.343 43.312 170.365 41.134 170.365 39.154C170.365 38.186 170.365 37.306 170.365 36.514C170.365 35.678 170.321 34.952 170.233 34.336C170.145 34.248 169.881 34.182 169.441 34.138C169.045 34.05 168.649 33.984 168.253 33.94C167.901 33.852 167.725 33.808 167.725 33.808C167.725 33.72 168.055 33.522 168.715 33.214C169.419 32.862 170.409 32.686 171.685 32.686C172.961 32.686 173.797 32.928 174.193 33.412C174.589 33.896 174.787 34.314 174.787 34.666C174.787 34.798 174.787 34.93 174.787 35.062C174.787 35.194 174.765 35.326 174.721 35.458C174.369 37.174 174.105 38.736 173.929 40.144C173.753 41.508 173.621 42.916 173.533 44.368C173.445 45.776 173.379 47.426 173.335 49.318C173.379 49.186 173.577 48.504 173.929 47.272C174.325 45.996 174.963 44.016 175.843 41.332C176.547 39.088 177.119 37.636 177.559 36.976C177.999 36.272 178.373 35.898 178.681 35.854C178.769 35.898 179.011 35.986 179.407 36.118C179.803 36.25 180.199 36.47 180.595 36.778C180.991 37.042 181.189 37.394 181.189 37.834V37.966C180.881 39.594 180.595 41.442 180.331 43.51C180.111 45.578 180.001 47.58 180.001 49.516C180.001 50.748 180.045 51.892 180.133 52.948C180.265 54.004 180.485 54.862 180.793 55.522C180.793 55.346 180.925 54.774 181.189 53.806C181.497 52.838 181.849 51.738 182.245 50.506C182.641 49.23 183.015 48.02 183.367 46.876C183.719 45.732 183.983 44.874 184.159 44.302C184.511 43.246 184.819 42.542 185.083 42.19C185.391 41.838 185.809 41.662 186.337 41.662C187.085 41.662 187.613 42.124 187.921 43.048C188.273 43.928 188.493 45.028 188.581 46.348C188.669 47.668 188.735 48.988 188.779 50.308C188.823 51.628 188.911 52.75 189.043 53.674C189.219 54.554 189.549 54.994 190.033 54.994C190.605 54.994 191.199 54.576 191.815 53.74C192.431 52.86 193.025 51.848 193.597 50.704C194.213 49.56 194.763 48.57 195.247 47.734C195.731 46.854 196.105 46.414 196.369 46.414C196.501 46.414 196.567 46.524 196.567 46.744C196.567 46.92 196.501 47.206 196.369 47.602C195.753 49.098 195.093 50.594 194.389 52.09C193.685 53.586 192.959 54.84 192.211 55.852C191.463 56.864 190.671 57.37 189.835 57.37C188.779 57.37 187.943 57.062 187.327 56.446C186.887 56.05 186.535 55.324 186.271 54.268C186.007 53.168 185.787 52.024 185.611 50.836C185.435 49.648 185.259 48.636 185.083 47.8C184.951 46.92 184.797 46.48 184.621 46.48C184.489 46.48 184.291 46.876 184.027 47.668C183.807 48.416 183.565 49.362 183.301 50.506C183.037 51.65 182.773 52.816 182.509 54.004C182.289 55.148 182.091 56.16 181.915 57.04C181.783 57.92 181.717 58.47 181.717 58.69C181.717 59.218 181.475 59.526 180.991 59.614C180.551 59.702 179.979 59.746 179.275 59.746C178.967 59.746 178.659 59.262 178.351 58.294C178.043 57.282 177.757 56.006 177.493 54.466C177.273 52.882 177.097 51.21 176.965 49.45C176.833 47.69 176.767 46.062 176.767 44.566C176.767 44.082 176.767 43.642 176.767 43.246C176.767 42.806 176.789 42.41 176.833 42.058C176.129 44.082 175.403 46.546 174.655 49.45C173.907 52.31 173.533 55.412 173.533 58.756C173.533 60.12 173.599 61.396 173.731 62.584C173.863 63.772 174.083 64.696 174.391 65.356C174.435 65.444 174.457 65.554 174.457 65.686C174.457 65.862 174.369 65.95 174.193 65.95ZM200.137 63.772C199.345 63.772 198.707 63.244 198.223 62.188C197.783 61.132 197.431 59.834 197.167 58.294C196.947 56.71 196.793 55.17 196.705 53.674C196.133 53.498 195.561 53.344 194.989 53.212C194.461 53.036 193.955 52.904 193.471 52.816C193.119 52.772 192.943 52.552 192.943 52.156C192.943 51.672 193.207 51.144 193.735 50.572C194.307 50 194.923 49.714 195.583 49.714L196.045 49.78L196.573 49.978V49.912C196.573 46.436 196.815 43.224 197.299 40.276C197.783 37.284 198.289 34.798 198.817 32.818C199.389 30.838 199.785 29.65 200.005 29.254C200.225 28.902 200.423 28.374 200.599 27.67C200.819 26.922 201.215 26.548 201.787 26.548C202.667 26.548 203.415 26.856 204.031 27.472C204.647 28.088 204.955 28.506 204.955 28.726C204.427 29.958 203.833 31.234 203.173 32.554C202.513 33.874 201.875 35.37 201.259 37.042C200.643 38.67 200.115 40.606 199.675 42.85C199.235 45.094 198.971 47.756 198.883 50.836L199.741 51.232C201.369 50.088 203.041 48.724 204.757 47.14C206.473 45.556 208.101 43.928 209.641 42.256C211.225 40.584 212.589 39.066 213.733 37.702C213.821 37.614 213.909 37.57 213.997 37.57C214.129 37.57 214.195 37.658 214.195 37.834C214.195 37.922 214.173 38.01 214.129 38.098C213.337 39.55 212.237 41.134 210.829 42.85C209.465 44.566 207.991 46.238 206.407 47.866C204.823 49.494 203.283 50.924 201.787 52.156C204.647 53.52 207.441 55.148 210.169 57.04C212.941 58.932 215.559 60.89 218.023 62.914C218.331 63.178 218.485 63.376 218.485 63.508C218.485 63.684 218.397 63.772 218.221 63.772C218.089 63.772 217.979 63.728 217.891 63.64C216.879 63.024 215.405 62.166 213.469 61.066C211.533 60.01 209.465 58.932 207.265 57.832C206.517 57.48 205.351 56.974 203.767 56.314C202.227 55.654 200.599 55.016 198.883 54.4C198.927 56.292 199.081 58.008 199.345 59.548C199.653 61.088 199.961 62.452 200.269 63.64C200.269 63.728 200.225 63.772 200.137 63.772ZM228.395 58.36C227.911 58.36 227.383 58.184 226.811 57.832C226.239 57.436 225.843 57.018 225.623 56.578C225.623 55.566 225.755 54.18 226.019 52.42C226.283 50.66 226.569 48.856 226.877 47.008C227.229 45.116 227.537 43.51 227.801 42.19C227.009 43.422 226.107 44.764 225.095 46.216C224.083 47.668 223.049 49.032 221.993 50.308C220.937 51.54 219.859 52.574 218.759 53.41C217.703 54.202 216.713 54.598 215.789 54.598C214.865 54.598 214.139 54.29 213.611 53.674C213.083 53.014 212.819 52.266 212.819 51.43C212.819 51.21 212.863 50.924 212.951 50.572C213.347 48.548 214.117 46.656 215.261 44.896C216.449 43.092 217.791 41.508 219.287 40.144C220.827 38.78 222.345 37.702 223.841 36.91C225.337 36.118 226.613 35.722 227.669 35.722C228.461 35.722 229.209 35.898 229.913 36.25C230.661 36.558 231.365 37.086 232.025 37.834C232.157 37.966 232.223 38.12 232.223 38.296C232.223 38.516 232.091 38.736 231.827 38.956C231.519 40.012 231.189 41.288 230.837 42.784C230.529 44.236 230.221 45.754 229.913 47.338C229.649 48.878 229.429 50.308 229.253 51.628C229.077 52.948 228.989 53.96 228.989 54.664C228.989 55.148 229.055 55.39 229.187 55.39C229.539 55.39 229.979 55.016 230.507 54.268C231.079 53.52 231.629 52.662 232.157 51.694C232.685 50.726 233.147 49.868 233.543 49.12C233.983 48.372 234.247 47.998 234.335 47.998C234.467 47.998 234.533 48.174 234.533 48.526C234.533 49.274 234.291 50.198 233.807 51.298C233.323 52.398 232.729 53.498 232.025 54.598C231.365 55.654 230.683 56.556 229.979 57.304C229.319 58.008 228.791 58.36 228.395 58.36ZM216.317 52.156C216.933 52.156 217.703 51.804 218.627 51.1C219.595 50.396 220.585 49.494 221.597 48.394C222.653 47.294 223.665 46.128 224.633 44.896C225.645 43.664 226.503 42.498 227.207 41.398C227.955 40.254 228.483 39.33 228.791 38.626C227.911 38.626 226.899 38.956 225.755 39.616C224.611 40.232 223.445 41.046 222.257 42.058C221.069 43.026 219.969 44.104 218.957 45.292C217.945 46.436 217.131 47.558 216.515 48.658C215.899 49.758 215.591 50.704 215.591 51.496C215.591 51.936 215.833 52.156 216.317 52.156Z" fill="white"/>
</svg>
