<svg width="50" height="50" viewBox="0 0 50 50" fill="none" xmlns="http://www.w3.org/2000/svg">
<path d="M49.9985 37.4346V44.9616C50.0013 45.6604 49.8579 46.352 49.5774 46.9923C49.2969 47.6325 48.8855 48.2072 48.3696 48.6796C47.8537 49.152 47.2446 49.5117 46.5813 49.7355C45.9181 49.9594 45.2153 50.0425 44.518 49.9796C36.782 49.1407 29.3511 46.5025 22.8223 42.277C16.748 38.4248 11.5982 33.2851 7.73834 27.223C3.48965 20.6775 0.845604 13.2252 0.0204053 5.46988C-0.042418 4.77605 0.0402027 4.07678 0.263006 3.41657C0.485809 2.75636 0.843914 2.14968 1.31452 1.63516C1.78513 1.12065 2.35792 0.709563 2.99644 0.428084C3.63496 0.146605 4.32521 0.000899307 5.02324 0.000243254H12.5652C13.7852 -0.0117409 14.968 0.419444 15.8931 1.21343C16.8182 2.00741 17.4224 3.11002 17.5932 4.31573C17.9115 6.72455 18.5018 9.08969 19.353 11.366C19.6912 12.2641 19.7644 13.2401 19.5639 14.1783C19.3634 15.1166 18.8976 15.9779 18.2217 16.66L15.0289 19.8465C18.6077 26.1279 23.8189 31.3288 30.1128 34.9005L33.3056 31.7141C33.9891 31.0395 34.8521 30.5746 35.7922 30.3745C36.7324 30.1744 37.7103 30.2475 38.6101 30.585C40.891 31.4344 43.2608 32.0236 45.6744 32.3413C46.8956 32.5133 48.0109 33.1272 48.8082 34.0663C49.6054 35.0053 50.029 36.2041 49.9985 37.4346Z" fill="#D25151"/>
</svg>
