<svg width="50" height="50" viewBox="0 0 50 50" fill="none" xmlns="http://www.w3.org/2000/svg">
<path d="M0 50L3.53136 37.1604C1.35226 33.4021 0.207234 29.1417 0.209328 24.7729C0.215607 11.1146 11.3832 0 25.1047 0C31.7634 0.00208333 38.0139 2.58333 42.7154 7.26667C47.4148 11.95 50.0021 18.175 50 24.7958C49.9937 38.4562 38.8261 49.5708 25.1047 49.5708C20.939 49.5687 16.8341 48.5292 13.1981 46.5542L0 50ZM13.8093 42.0687C17.3177 44.1417 20.6669 45.3833 25.0963 45.3854C36.5005 45.3854 45.7904 36.1479 45.7967 24.7917C45.8009 13.4125 36.5549 4.1875 25.113 4.18333C13.7005 4.18333 4.41681 13.4208 4.41263 24.775C4.41053 29.4104 5.77535 32.8812 8.06749 36.5125L5.9763 44.1125L13.8093 42.0687ZM37.6455 30.6854C37.4906 30.4271 37.0761 30.2729 36.4523 29.9625C35.8306 29.6521 32.7723 28.1542 32.2009 27.9479C31.6315 27.7417 31.217 27.6375 30.8005 28.2583C30.386 28.8771 29.1928 30.2729 28.8307 30.6854C28.4686 31.0979 28.1043 31.15 27.4826 30.8396C26.8609 30.5292 24.8556 29.8771 22.4797 27.7667C20.6313 26.125 19.3816 24.0979 19.0195 23.4771C18.6574 22.8583 18.9818 22.5229 19.2916 22.2146C19.5721 21.9375 19.9133 21.4917 20.2252 21.1292C20.5413 20.7708 20.6439 20.5125 20.8532 20.0979C21.0605 19.6854 20.9579 19.3229 20.8009 19.0125C20.6439 18.7042 19.4005 15.6562 18.8834 14.4167C18.3769 13.2104 17.864 13.3729 17.483 13.3542L16.2899 13.3333C15.8754 13.3333 15.2014 13.4875 14.632 14.1083C14.0626 14.7292 12.455 16.225 12.455 19.2729C12.455 22.3208 14.6843 25.2646 14.9941 25.6771C15.306 26.0896 19.3796 32.3438 25.6196 35.025C27.1037 35.6625 28.2634 36.0437 29.1656 36.3292C30.656 36.8 32.0125 36.7333 33.0842 36.575C34.2795 36.3979 36.7642 35.0771 37.2833 33.6312C37.8025 32.1833 37.8025 30.9437 37.6455 30.6854Z" fill="#D25151"/>
</svg>
